<?xml version="1.0" encoding="UTF-8" standalone="no"?>
<!-- Created with Inkscape (http://www.inkscape.org/) -->

<svg
   xmlns:dc="http://purl.org/dc/elements/1.1/"
   xmlns:cc="http://creativecommons.org/ns#"
   xmlns:rdf="http://www.w3.org/1999/02/22-rdf-syntax-ns#"
   xmlns:svg="http://www.w3.org/2000/svg"
   xmlns="http://www.w3.org/2000/svg"
   xmlns:sodipodi="http://sodipodi.sourceforge.net/DTD/sodipodi-0.dtd"
   xmlns:inkscape="http://www.inkscape.org/namespaces/inkscape"
   width="3178.5828"
   height="2245.0393"
   viewBox="0 0 840.99997 593.99999"
   version="1.1"
   id="svg8"
   inkscape:version="0.92.3 (2405546, 2018-03-11)"
   sodipodi:docname="描画.svg">
  <defs
     id="defs2" />
  <sodipodi:namedview
     id="base"
     pagecolor="#ffffff"
     bordercolor="#666666"
     borderopacity="1.0"
     inkscape:pageopacity="0.0"
     inkscape:pageshadow="2"
     inkscape:zoom="0.5"
     inkscape:cx="153.73272"
     inkscape:cy="1739.7235"
     inkscape:document-units="px"
     inkscape:current-layer="layer1"
     showgrid="false"
     units="px"
     inkscape:window-width="1366"
     inkscape:window-height="705"
     inkscape:window-x="-8"
     inkscape:window-y="-8"
     inkscape:window-maximized="1" />
  <metadata
     id="metadata5">
    <rdf:RDF>
      <cc:Work
         rdf:about="">
        <dc:format>image/svg+xml</dc:format>
        <dc:type
           rdf:resource="http://purl.org/dc/dcmitype/StillImage" />
        <dc:title />
      </cc:Work>
    </rdf:RDF>
  </metadata>
  <g
     inkscape:label="レイヤー 1"
     inkscape:groupmode="layer"
     id="layer1"
     transform="translate(0,296.99997)">
    <g
       id="g850"
       inkscape:export-filename="C:\Users\mfujino\g850.png"
       inkscape:export-xdpi="96"
       inkscape:export-ydpi="96">
      <rect
         y="-235.16292"
         x="12.848361"
         height="127"
         width="211.66666"
         id="rect815"
         style="opacity:1;fill:#000000;stroke:none;stroke-width:1.32291663;stroke-miterlimit:4;stroke-dasharray:none;stroke-opacity:1" />
      <g
         transform="matrix(0.40791993,0,0,-0.39328955,160.07258,-194.63726)"
         id="g1175"
         style="stroke:none">
        <path
           inkscape:connector-curvature="0"
           id="path1177"
           style="fill:#ffffff;fill-opacity:1;fill-rule:nonzero;stroke:none"
           d="m 0,0 c -1.676,-3.023 -5.396,-4.161 -8.476,-2.698 l 6.01,4.065 0.262,7.251 C 0.669,6.782 1.676,3.023 0,0 m -9.183,-2.306 c -2.873,1.836 -3.879,5.594 -2.203,8.617 1.675,3.024 5.396,4.162 8.475,2.698 l -6.01,-4.064 z m -32.934,-17.707 -6.701,10.452 6.701,10.64 z m -51.205,17.171 h -6.233 v 5.113 h 6.233 c 1.656,0 2.97,-0.826 2.97,-2.579 0,-1.705 -1.314,-2.534 -2.97,-2.534 m -43.727,-11.636 c -2.678,0 -4.188,1.994 -4.188,4.625 0,2.579 1.51,4.576 4.188,4.576 2.727,0 4.235,-1.997 4.235,-4.576 0,-2.631 -1.508,-4.625 -4.235,-4.625 m -33.648,0 c -2.678,0 -4.188,1.994 -4.188,4.625 0,2.579 1.51,4.576 4.188,4.576 2.727,0 4.235,-1.997 4.235,-4.576 0,-2.631 -1.508,-4.625 -4.235,-4.625 M -0.716,12.136 c -4.951,2.745 -11.213,0.949 -13.957,-4.002 -1.269,-2.288 -1.529,-4.848 -0.995,-7.219 -2.13,0.816 -4.494,1.304 -7.05,1.204 -6.811,-0.267 -10.353,-4.416 -10.179,-8.885 0.402,-10.268 13.615,-6.716 13.707,-9.079 0.025,-0.617 -0.492,-1.099 -2.292,-1.17 -6.303,-0.246 -9.963,1.543 -11.869,3.615 V 1.882 h -3.005 c 1.455,1.865 3.54,4.84 3.54,6.622 0,2.727 -2.191,4.918 -4.919,4.918 -2.725,0 -4.917,-2.191 -4.917,-4.918 0,-1.782 2.085,-4.757 3.54,-6.622 h -2.499 -0.506 -9.087 l -3.165,-5.503 -3.164,5.503 h -5.515 -4.079 -5.174 l -4.528,-13.44 -3.583,10.751 c 0.006,0.169 0.043,0.329 0.043,0.499 0,6.085 -4.091,11.15 -11.688,11.15 h -17.334 V 2.461 c -2.474,-0.256 -5.105,-1.619 -6.427,-3.161 v 2.582 h -8.765 v -7.423 c -1.664,4.579 -6.008,8.008 -12.466,8.008 -6.42,0 -10.755,-3.428 -12.417,-8.006 v 16.381 h -8.765 V -5.54 c -1.664,4.578 -6.008,8.007 -12.466,8.007 -8.327,0 -13.196,-5.747 -13.196,-12.32 0,-0.045 0.012,-0.088 0.012,-0.132 -1.122,-2.006 -3.295,-3.57 -5.758,-3.57 -4.722,0 -7.887,3.605 -7.887,8.133 0,4.529 3.165,8.131 7.887,8.131 2.87,0 5.354,-2.115 6.227,-4.588 1.72,2.522 4.358,4.433 7.729,5.411 -2.228,3.984 -6.443,7.844 -13.956,7.844 -10.177,0 -17.87,-6.767 -17.87,-16.798 0,-9.982 7.693,-16.8 17.87,-16.8 4.289,0 7.514,1.31 9.905,3.161 2.223,-1.924 5.251,-3.161 9.037,-3.161 6.458,0 10.802,3.458 12.466,8.049 v -7.464 h 8.765 v 7.462 c 1.662,-4.591 5.997,-8.047 12.417,-8.047 6.458,0 10.802,3.458 12.466,8.05 v -7.465 h 8.765 v 14.414 c 0.973,1.168 3.359,1.654 5.21,1.654 0.449,0 0.856,-0.032 1.217,-0.082 v -15.986 h 9.836 v 10.227 h 7.498 c 4.072,0 7.1,1.481 9.067,3.761 -0.369,-1.671 -1.088,-3.196 -2.148,-4.481 l 3.829,-9.896 -0.195,-0.489 c -0.292,-0.631 -1.363,-0.923 -3.068,-0.923 -0.583,0 -1.314,0.145 -1.849,0.437 l -1.217,-7.789 c 0.826,-0.244 2.775,-0.392 3.407,-0.392 4.967,0.148 8.864,1.17 10.957,6.625 l 8.674,22.427 4.68,-7.431 -7.693,-12.076 h 9.544 l 3.749,6.233 3.651,-6.233 h 8.552 1.042 6.829 c 2.569,-1.369 6.844,-2.5 12.594,-2.275 6.958,0.272 11.003,4.03 10.81,8.96 -0.403,10.32 -13.635,7.231 -13.715,9.286 -0.022,0.563 0.882,1.112 2.146,1.161 2.726,0.107 5.501,-1.069 7.01,-2.297 l 1.714,3.532 c 0.81,-1.01 1.816,-1.889 3.016,-2.554 4.952,-2.745 11.213,-0.95 13.958,4.002 2.745,4.952 0.949,11.213 -4.003,13.958" />
      </g>
      <text
         transform="scale(0.99791875,1.0020856)"
         id="text5552"
         y="-161.7254"
         x="70.038139"
         style="font-style:normal;font-weight:normal;font-size:6.40293026px;line-height:1.25;font-family:sans-serif;letter-spacing:0px;word-spacing:0px;fill:#000000;fill-opacity:1;stroke:none;stroke-width:0.26678875"
         xml:space="preserve"><tspan
           id="tspan5554"
           style="font-size:7.05555534px;fill:#ffffff;stroke:none;stroke-width:0.26678875"
           y="-161.7254"
           x="70.038139"
           sodipodi:role="line">CP200 LED COLOR VIEWER</tspan></text>
      <text
         transform="scale(0.99791875,1.0020856)"
         id="text5560"
         y="-129.96709"
         x="81.579552"
         style="font-style:normal;font-weight:normal;font-size:6.40293026px;line-height:1.25;font-family:sans-serif;letter-spacing:0px;word-spacing:0px;fill:#000000;fill-opacity:1;stroke:none;stroke-width:0.26678875"
         xml:space="preserve"><tspan
           style="font-size:6.3499999px;fill:#ffffff;stroke:none;stroke-width:0.26678875"
           y="-129.96709"
           x="81.579552"
           id="tspan5558"
           sodipodi:role="line">NOBUO Electronics Inc.</tspan></text>
    </g>
  </g>
</svg>
